<?xml version="1.0" encoding="UTF-8"?>
<svg version="1.1" xmlns="http://www.w3.org/2000/svg" width="600" height="600">
<path d="M0 0 C198 0 396 0 600 0 C600 198 600 396 600 600 C402 600 204 600 0 600 C0 402 0 204 0 0 Z " fill="#F6F6F6" transform="translate(0,0)"/>
<path d="M0 0 C8.45485983 4.70600689 11.10929883 12.57616267 13.80078125 21.41796875 C16.22925679 31.55605877 17.05391546 41.29691184 17.0078125 51.71484375 C17.00507828 52.70037231 17.00507828 52.70037231 17.00228882 53.70581055 C16.95057594 64.82727917 16.01711411 75.29763805 13.6953125 86.15234375 C13.52370605 87.01730469 13.35209961 87.88226563 13.17529297 88.7734375 C10.67201867 101.39047687 7.22015415 113.27225344 2.37207031 125.18969727 C0.37514659 130.98092013 0.50376967 136.72522712 0.5078125 142.77734375 C0.50716797 143.77572266 0.50652344 144.77410156 0.50585938 145.80273438 C0.54646558 151.43961325 1.00893782 156.57600254 2.23828125 162.0859375 C6.76612121 192.46503467 -3.1737896 223.31529683 -20.9296875 247.83984375 C-22.04136999 249.28766739 -23.16048497 250.73008083 -24.3046875 252.15234375 C-25.23892395 249.14202631 -25.34918661 248.28584107 -24.3046875 245.15234375 C-23.72186183 239.68715878 -23.62225118 234.4957941 -26.78125 229.74609375 C-33.79685558 222.40669099 -44.51332191 219.25082216 -54.21484375 217.50390625 C-55.71552273 217.21759434 -57.21617284 216.93113101 -58.71679688 216.64453125 C-61.03022175 216.21138764 -63.34420406 215.78157464 -65.65893555 215.35546875 C-100.12995665 208.96770205 -100.12995665 208.96770205 -111.05078125 196.25390625 C-115.20991464 189.28314687 -115.67988164 183.14160714 -115.7421875 175.21484375 C-116.30060613 155.20271567 -121.02843841 137.01455829 -135.3046875 122.15234375 C-149.06592531 109.43815664 -165.45342843 106.08325378 -183.6171875 105.77734375 C-193.97734382 105.56258365 -201.16036599 104.46500962 -209.23828125 97.48046875 C-214.54244143 91.93463221 -216.15454898 85.71676375 -217.1171875 78.27734375 C-220.06281394 57.56216593 -230.06520664 34.23316701 -246.3671875 20.65234375 C-253.09034658 15.67989943 -258.50343896 12.29375819 -267.109375 12.71484375 C-269.51659047 13.01635107 -269.51659047 13.01635107 -271.6796875 15.08984375 C-282.91080902 36.25618816 -281.49332888 61.42516828 -275.3046875 84.15234375 C-274.05260162 87.99017553 -272.6239695 91.7550082 -271.17871094 95.5234375 C-269.42891265 100.2568368 -268.94701087 103.61277794 -269.859375 108.53125 C-272.23601254 122.52005519 -270.5429978 139.51859625 -263.9296875 152.08984375 C-261.65884655 156.54247306 -260.92054764 158.78295383 -262.4296875 163.58984375 C-262.75324219 164.48316406 -263.07679688 165.37648438 -263.41015625 166.296875 C-267.53798542 179.47348252 -262.55161847 196.20825172 -256.94140625 208.3671875 C-256.73128906 208.95628906 -256.52117187 209.54539062 -256.3046875 210.15234375 C-256.6346875 210.81234375 -256.9646875 211.47234375 -257.3046875 212.15234375 C-269.68637093 189.56532979 -269.68637093 189.56532979 -269.2265625 177.23046875 C-269.20078125 176.121875 -269.175 175.01328125 -269.1484375 173.87109375 C-269.08634657 171.57372939 -269.00842956 169.27673379 -268.9140625 166.98046875 C-268.78626113 160.07919499 -269.61345866 155.70352395 -273.00244141 149.7175293 C-277.83144826 140.20527302 -277.65177835 129.49671326 -277.6796875 119.08984375 C-277.83064261 108.27348444 -278.9778567 98.49761914 -281.9609375 88.0703125 C-286.05929419 73.66423544 -287.65430887 58.77817725 -287.7421875 43.83984375 C-287.7522583 42.74986084 -287.7623291 41.65987793 -287.77270508 40.53686523 C-287.65001903 29.18449011 -285.56850194 15.93696973 -277.56640625 7.26953125 C-275.86383771 5.76018783 -274.20105539 4.40810414 -272.3046875 3.15234375 C-271.73878906 2.77078125 -271.17289063 2.38921875 -270.58984375 1.99609375 C-265.77070231 0.21671845 -261.14238434 0.58410505 -256.48046875 2.515625 C-255.18176684 3.14320907 -253.89409263 3.79402209 -252.6171875 4.46484375 C-251.92947266 4.81732178 -251.24175781 5.1697998 -250.53320312 5.53295898 C-243.89293894 9.09604626 -238.3928595 13.62248534 -232.87231445 18.72558594 C-231.20949512 20.23898201 -229.49909067 21.68544465 -227.78515625 23.140625 C-221.42220195 28.69326728 -215.56421602 34.78810384 -209.6171875 40.77734375 C-208.39541804 42.00414107 -207.17341445 43.23070528 -205.95117188 44.45703125 C-203.70729126 46.70901361 -201.46477006 48.96233012 -199.22387695 51.21728516 C-196.5895053 53.86769122 -193.94845898 56.51131509 -191.3046875 59.15234375 C-190.01498047 58.46398437 -190.01498047 58.46398437 -188.69921875 57.76171875 C-180.78957758 53.62303172 -173.01382782 50.30918484 -164.3046875 48.15234375 C-163.63381104 47.97646729 -162.96293457 47.80059082 -162.27172852 47.61938477 C-154.16882156 45.71737791 -146.017161 45.71539863 -137.7421875 45.71484375 C-136.97577942 45.71277924 -136.20937134 45.71071472 -135.41973877 45.70858765 C-118.83885978 45.71656482 -102.99643854 48.00181864 -87.2878418 53.47460938 C-84.32497601 54.4871559 -81.3219619 55.31777849 -78.3046875 56.15234375 C-78.02794189 55.5586499 -77.75119629 54.96495605 -77.46606445 54.35327148 C-76.37252994 52.28091209 -75.24486574 50.70693609 -73.72265625 48.9375 C-72.95320679 48.0417627 -72.95320679 48.0417627 -72.16821289 47.12792969 C-71.61512451 46.49661133 -71.06203613 45.86529297 -70.4921875 45.21484375 C-69.9139624 44.55387695 -69.3357373 43.89291016 -68.73999023 43.21191406 C-56.61975566 29.49436292 -43.60908288 17.94940722 -28.4296875 7.71484375 C-27.83559082 7.31370361 -27.24149414 6.91256348 -26.62939453 6.49926758 C-18.28056061 1.00037655 -10.18250327 -3.74509019 0 0 Z " fill="#242022" transform="translate(434.3046875,104.84765625)"/>
<path d="M0 0 C8.02770281 6.10218679 9.77425216 17.88800507 11.17456055 27.31152344 C13.40928057 44.72095965 11.94565229 61.77455926 9 79 C8.80784912 80.12486816 8.80784912 80.12486816 8.61181641 81.27246094 C5.4589525 99.21699615 5.4589525 99.21699615 1.375 105.5 C-2.25701632 107.79390504 -5.72206583 108.55199151 -10 108 C-14.25027248 104.41088101 -15.97981808 100.20131489 -17.91015625 95.05078125 C-19.26213036 92.50674395 -20.50751457 91.43384915 -23 90 C-29.39120923 88.9080346 -34.17724806 90.36328214 -40 93 C-45.19901086 93.98094545 -47.92445602 92.70036052 -52.1875 89.875 C-57.89005426 85.57428761 -61.37634032 81.03585863 -63 74 C-64.49885959 58.61696739 -55.82781946 45.72453986 -46.5 34.1875 C-45.01069096 32.44911686 -43.51093841 30.71961696 -42 29 C-40.95585937 27.75669922 -40.95585937 27.75669922 -39.890625 26.48828125 C-31.54267721 16.78455362 -14.11902909 -2.2722509 0 0 Z " fill="#FCFCFC" transform="translate(430,114)"/>
<path d="M0 0 C0.80268311 0.17362061 1.60536621 0.34724121 2.43237305 0.52612305 C4.41051905 0.98737088 6.36493789 1.54810052 8.3125 2.125 C8.8075 3.115 8.8075 3.115 9.3125 4.125 C8.68988281 4.19847656 8.06726563 4.27195312 7.42578125 4.34765625 C5.14561552 4.91880513 5.14561552 4.91880513 4.29296875 7.05859375 C4.03128906 7.88488281 3.76960938 8.71117187 3.5 9.5625 C-0.22136921 19.72358234 -6.59111158 27.6742141 -16 33 C-24.93615976 35.72628603 -32.30867771 33.91143693 -40.6875 30.125 C-41.6875 29.125 -41.6875 29.125 -41.75 26.5625 C-41.729375 25.758125 -41.70875 24.95375 -41.6875 24.125 C-42.3475 24.125 -43.0075 24.125 -43.6875 24.125 C-43.6875 26.435 -43.6875 28.745 -43.6875 31.125 C-44.0175 31.125 -44.3475 31.125 -44.6875 31.125 C-45.48767376 14.05462641 -45.48767376 14.05462641 -40.6875 8.125 C-29.69651685 -3.73655608 -14.74631726 -3.2284491 0 0 Z " fill="#252123" transform="translate(373.6875,258.875)"/>
<path d="M0 0 C1.86301758 -0.04350586 1.86301758 -0.04350586 3.76367188 -0.08789062 C14.38008031 -0.16102963 21.79794685 1.9986105 29.58203125 9.34765625 C35.89569124 16.51643949 35.823849 24.12242206 35.3125 33.3125 C34.90644531 32.81105469 34.50039063 32.30960937 34.08203125 31.79296875 C32.44242458 30.11405491 32.44242458 30.11405491 30.32421875 30.23828125 C29.55722656 30.36589844 28.79023438 30.49351562 28 30.625 C8.70846382 33.14251719 8.70846382 33.14251719 1.3125 28.3125 C-5.87840872 21.89043058 -8.48129876 14.72086969 -9.6875 5.3125 C-12.3275 4.6525 -14.9675 3.9925 -17.6875 3.3125 C-17.6875 2.6525 -17.6875 1.9925 -17.6875 1.3125 C-11.97028989 -0.40742377 -5.91383305 0.04532831 0 0 Z " fill="#262324" transform="translate(233.6875,258.6875)"/>
<path d="M0 0 C0.33 0 0.66 0 1 0 C1.02917234 3.87498404 1.04685673 7.74993958 1.0625 11.625 C1.07087891 12.71941406 1.07925781 13.81382812 1.08789062 14.94140625 C1.09111328 16.00488281 1.09433594 17.06835938 1.09765625 18.1640625 C1.10289307 19.13811035 1.10812988 20.1121582 1.11352539 21.11572266 C0.99414506 24.14875321 0.55866724 27.01915268 0 30 C0.99 29.34 1.98 28.68 3 28 C6.06274414 27.75708008 6.06274414 27.75708008 9.78515625 27.76953125 C10.77049599 27.77021858 10.77049599 27.77021858 11.77574158 27.7709198 C13.1617921 27.77393624 14.54783942 27.78180441 15.93383789 27.79418945 C18.05822722 27.81246325 20.18218084 27.81469893 22.30664062 27.81445312 C32.70478651 27.85239326 32.70478651 27.85239326 35 29 C35.33 20.75 35.66 12.5 36 4 C36.33 4 36.66 4 37 4 C37.64163005 9.25907488 38.23792001 14.51906291 38.76855469 19.79052734 C38.95690774 21.5886235 39.18032002 23.3830205 39.4140625 25.17578125 C39.72804206 28.91446376 39.78774915 31.01769779 37.38671875 34.01171875 C35.34355053 35.84710716 33.25918957 37.44078196 31 39 C27.10020416 41.8824578 25.72035002 43.52708995 24 48 C22.1875 49.875 22.1875 49.875 20 51 C17.17789086 50.86233614 15.58403105 50.43261559 13.3125 48.75 C12 47 12 47 11.26171875 44.6484375 C9.62665992 41.21633259 7.63717252 39.98020788 4.5 37.875 C-0.8115016 34.2827476 -0.8115016 34.2827476 -3 31 C-3.046875 27.98828125 -3.046875 27.98828125 -2.75 24.3125 C-2.6991626 23.66273193 -2.6483252 23.01296387 -2.59594727 22.34350586 C-1.97444223 14.86850344 -1.00583237 7.43144107 0 0 Z " fill="#272425" transform="translate(280,312)"/>
<path d="M0 0 C0 0.33 0 0.66 0 1 C-0.82089111 1.0093457 -1.64178223 1.01869141 -2.48754883 1.02832031 C-5.58748492 1.07282013 -8.68649953 1.13464576 -11.78588867 1.20751953 C-13.76523235 1.24900921 -15.74495031 1.27122512 -17.72460938 1.29296875 C-27.56382279 1.54206276 -36.8713547 2.35285946 -44 9.75 C-48.57058067 15.64364349 -50.23799375 21.68474001 -51 29 C-51.33 29 -51.66 29 -52 29 C-52.80017376 11.92962641 -52.80017376 11.92962641 -48 6 C-34.82909861 -8.2141411 -16.74300693 -4.44364165 0 0 Z " fill="#DAD8D9" transform="translate(381,261)"/>
<path d="M0 0 C0.66 0.33 1.32 0.66 2 1 C2.5 3.625 2.5 3.625 2 7 C-3.42756866 12.75902324 -10.57391279 16.1150467 -18.4375 16.375 C-23.5725457 16.22626075 -27.40420494 15.29789753 -32 13 C-32.33 12.01 -32.66 11.02 -33 10 C-31.02 8.68 -29.04 7.36 -27 6 C-26.50371094 6.28875 -26.00742187 6.5775 -25.49609375 6.875 C-20.82376242 9.42838031 -17.44624232 10.70599437 -12 10 C-6.76810676 8.15344944 -4.83953609 5.66495215 -2 1 C-1.34 0.67 -0.68 0.34 0 0 Z " fill="#2B2628" transform="translate(366,275)"/>
<path d="M0 0 C0.433125 0.721875 0.86625 1.44375 1.3125 2.1875 C5.8032533 6.88712555 11.42325696 9.52503954 17.8828125 10.3828125 C23.54499985 10.49321727 28.59335829 9.63219372 34 8 C31.43291817 11.13754446 28.86056043 11.94014988 25 13 C18.46154361 13.54843262 11.58604363 14.03011608 5.4375 11.4375 C0.69327918 9.45355311 -2.03930404 10.25910483 -6.71875 12.02734375 C-14.01175313 14.18919825 -23.03471103 14.48226564 -29.9375 11 C-30.948125 10.34 -31.95875 9.68 -33 9 C-32.34 8.67 -31.68 8.34 -31 8 C-30.154375 8.309375 -29.30875 8.61875 -28.4375 8.9375 C-20.17453892 11.49150615 -12.64361733 9.90005041 -5 6 C-2.84282786 4.07754607 -1.29136145 2.5827229 0 0 Z " fill="#252525" transform="translate(298,368)"/>
<path d="M0 0 C-0.66717041 0.00410889 -1.33434082 0.00821777 -2.02172852 0.01245117 C-31.30359249 0.3252114 -56.75868953 6.66349774 -82.65234375 20.3359375 C-85.73144288 21.86650486 -88.71383469 23.00662484 -92 24 C-81.52050548 12.60700369 -61.36772465 6.75526841 -47 2 C-45.94280762 1.64204346 -45.94280762 1.64204346 -44.86425781 1.27685547 C-33.14826334 -2.54036447 -10.4959035 -6.997269 0 0 Z " fill="#484848" transform="translate(261,350)"/>
<path d="M0 0 C31.11359351 -1.46401012 57.42530636 8.64573256 84 24 C83.34 24.33 82.68 24.66 82 25 C80.04248047 24.23071289 80.04248047 24.23071289 77.6171875 22.97265625 C76.7096875 22.51383057 75.8021875 22.05500488 74.8671875 21.58227539 C73.87976563 21.08074951 72.89234375 20.57922363 71.875 20.0625 C49.22436389 8.94882027 25.29900207 2.08812912 0 1 C0 0.67 0 0.34 0 0 Z " fill="#3D3D3D" transform="translate(342,348)"/>
<path d="M0 0 C2.3046875 -0.2421875 2.3046875 -0.2421875 5 0 C6.6953125 1.6796875 6.6953125 1.6796875 8.125 3.875 C10.03094037 6.74936412 11.04996179 8.03330786 14 10 C20.19527301 10.52502314 24.31028145 9.43845081 30 7 C30.12375 7.598125 30.2475 8.19625 30.375 8.8125 C30.95475985 11.26231348 30.95475985 11.26231348 33 14 C26.4790753 16.00643837 17.53181812 16.3041407 11.0625 14 C6.5304604 11.04030067 1.94491207 7.0630015 0.3046875 1.74609375 C0.20414063 1.16988281 0.10359375 0.59367187 0 0 Z " fill="#242223" transform="translate(227,275)"/>
<path d="M0 0 C26.37419842 -1.88387132 52.55464048 16.14188874 72 32 C72.33 32.66 72.66 33.32 73 34 C70.23536151 32.68193909 67.74326288 31.21485376 65.234375 29.4609375 C55.500159 22.75239839 45.77272338 16.87694018 35 12 C33.41251953 11.27876953 33.41251953 11.27876953 31.79296875 10.54296875 C21.55185877 6.10023297 11.00264824 2.88758751 0 1 C0 0.67 0 0.34 0 0 Z " fill="#393939" transform="translate(340,352)"/>
<path d="M0 0 C2.6097113 1.92891705 3.01721335 3.07602565 3.75 6.3125 C4 10 4 10 3.55078125 12.58203125 C2.81142614 17.17022784 2.63932611 21.73630803 2.4375 26.375 C2.39431641 27.30183594 2.35113281 28.22867188 2.30664062 29.18359375 C2.20123814 31.45560294 2.09911394 33.72770925 2 36 C1.67 36 1.34 36 1 36 C0.95101562 34.92878906 0.90203125 33.85757813 0.8515625 32.75390625 C0.77654706 31.35674361 0.7009987 29.9596095 0.625 28.5625 C0.5940625 27.85544922 0.563125 27.14839844 0.53125 26.41992188 C0.42719371 24.60760812 0.22080108 22.80182012 0 21 C-0.66 20.67 -1.32 20.34 -2 20 C-2.33 24.29 -2.66 28.58 -3 33 C-3.33 33 -3.66 33 -4 33 C-4.33 22.77 -4.66 12.54 -5 2 C-4.34 2.66 -3.68 3.32 -3 4 C-2.01 3.67 -1.02 3.34 0 3 C0 2.01 0 1.02 0 0 Z " fill="#212020" transform="translate(161,200)"/>
<path d="M0 0 C-2.99604906 1.99736604 -4.79553727 2.54326855 -8.25 3.3125 C-28.28673096 8.23212643 -48.00052996 16.69970706 -64 30 C-64.66 29.67 -65.32 29.34 -66 29 C-48.18758922 13.6184594 -24.07397521 -0.41506854 0 0 Z " fill="#343434" transform="translate(255,352)"/>
<path d="M0 0 C-1.06476563 0.40089844 -2.12953125 0.80179687 -3.2265625 1.21484375 C-13.31191987 5.11945643 -22.23859626 9.66089621 -31 16 C-31.5784668 16.41765625 -32.15693359 16.8353125 -32.75292969 17.265625 C-42.00129594 24.0399385 -50.08330271 31.7282349 -58 40 C-58 36.21934853 -57.15187305 35.7563529 -54.5546875 33.12109375 C-53.44456299 31.99356689 -53.44456299 31.99356689 -52.31201172 30.84326172 C-51.50779785 30.04936035 -50.70358398 29.25545898 -49.875 28.4375 C-49.05402832 27.62555176 -48.23305664 26.81360352 -47.38720703 25.97705078 C-38.34714884 17.19000879 -13.78310244 -5.30119325 0 0 Z " fill="#323232" transform="translate(258,356)"/>
<path d="M0 0 C23.74372581 2.64494769 42.14356649 20.57159093 58 37 C57.505 37.99 57.505 37.99 57 39 C56.44054687 38.40574219 55.88109375 37.81148438 55.3046875 37.19921875 C39.90939838 21.28415299 21.2336233 7.79349555 0 1 C0 0.67 0 0.34 0 0 Z " fill="#383838" transform="translate(338,355)"/>
<path d="M0 0 C2.56269497 1.04109483 4.02610343 2.02610343 6 4 C4.80375 4.515625 3.6075 5.03125 2.375 5.5625 C-4.29961616 8.92934178 -8.13893604 13.95961913 -10.4765625 21 C-11.25988912 23.99300917 -11.67951438 26.92333801 -12 30 C-12.33 30 -12.66 30 -13 30 C-13.80274994 12.87466804 -13.80274994 12.87466804 -9 7 C-6.26220862 4.23172096 -3.49561159 1.7478058 0 0 Z " fill="#E8E6E7" transform="translate(342,260)"/>
<path d="M0 0 C0.495 0.99 0.495 0.99 1 2 C-3.23831002 10.66339302 -9.0499289 17.15829252 -17.375 21.9375 C-25.07863792 24.19546284 -32.75969911 23.59541138 -40 20 C-40.33 19.34 -40.66 18.68 -41 18 C-39.906875 18.33 -38.81375 18.66 -37.6875 19 C-29.04987647 21.08704484 -21.96193134 20.83816186 -14.14453125 16.40625 C-7.86174207 12.28638824 -4.13210704 6.13266607 0 0 Z " fill="#C2BFC0" transform="translate(375,270)"/>
<path d="M0 0 C1.02802734 0.09667969 2.05605469 0.19335938 3.11523438 0.29296875 C4.72301758 0.46119141 4.72301758 0.46119141 6.36328125 0.6328125 C7.9884668 0.78943359 7.9884668 0.78943359 9.64648438 0.94921875 C12.32406908 1.20872035 15.00018811 1.47863669 17.67578125 1.7578125 C17.01578125 3.4078125 16.35578125 5.0578125 15.67578125 6.7578125 C15.03253906 6.6134375 14.38929688 6.4690625 13.7265625 6.3203125 C6.30498354 4.79576561 -0.76281997 4.54142907 -8.32421875 4.7578125 C-8.32421875 3.7678125 -8.32421875 2.7778125 -8.32421875 1.7578125 C-4.85323341 -0.55617773 -4.0110177 -0.39888574 0 0 Z " fill="#CFCFCF" transform="translate(344.32421875,348.2421875)"/>
<path d="M0 0 C0.36351562 1.66675781 0.36351562 1.66675781 0.734375 3.3671875 C2.42379419 10.92243321 4.10268158 18.14819093 7.36328125 25.21484375 C7.57339844 25.80394531 7.78351563 26.39304687 8 27 C7.67 27.66 7.34 28.32 7 29 C-4 8.93349169 -4 8.93349169 -4 2 C-1 0 -1 0 0 0 Z " fill="#373737" transform="translate(170,288)"/>
<path d="M0 0 C2.64 1.32 5.28 2.64 8 4 C8 5.65 8 7.3 8 9 C-0.7595092 9.44539877 -0.7595092 9.44539877 -5 6 C-5 5.34 -5 4.68 -5 4 C-3.37373596 2.61767557 -1.7074998 1.28062485 0 0 Z " fill="#221F20" transform="translate(338,281)"/>
<path d="M0 0 C2.475 0.495 2.475 0.495 5 1 C4.67 6.61 4.34 12.22 4 18 C3.01 18.33 2.02 18.66 1 19 C-0.65497356 15.69005287 -0.10084335 12.00877 -0.0625 8.375 C-0.05798828 7.57320313 -0.05347656 6.77140625 -0.04882812 5.9453125 C-0.03703168 3.96350994 -0.01909605 1.98174567 0 0 Z " fill="#212121" transform="translate(165,271)"/>
<path d="M0 0 C0.33 0 0.66 0 1 0 C1.05847045 3.85410207 1.09375405 7.70808865 1.125 11.5625 C1.14175781 12.64853516 1.15851563 13.73457031 1.17578125 14.85351562 C1.21098659 20.64479442 0.98923674 25.54134642 -1 31 C-1.66 31 -2.32 31 -3 31 C-2.43174786 20.59201341 -1.39777395 10.32724245 0 0 Z " fill="#4D4D4D" transform="translate(280,312)"/>
<path d="M0 0 C0.33 0.66 0.66 1.32 1 2 C-5.12351327 11.04849039 -5.12351327 11.04849039 -10 12 C-16.06168538 12.6735206 -19.06943183 11.21996289 -24 8 C-23.34 7.67 -22.68 7.34 -22 7 C-21.34 7.33 -20.68 7.66 -20 8 C-14.68864048 8.52940021 -10.32727259 8.66363629 -5.5 6.25 C-3.31065145 4.2795863 -1.58868289 2.47128449 0 0 Z " fill="#D0CDCE" transform="translate(364,274)"/>
<path d="M0 0 C1.7015625 0.495 1.7015625 0.495 3.4375 1 C11.01596547 2.87122604 17.57264862 2.16068404 25 0 C25.33 1.32 25.66 2.64 26 4 C19.8279894 6.05733687 11.45892942 6.11877802 5.234375 4.10546875 C3.0625 3 3.0625 3 0 1 C0 0.67 0 0.34 0 0 Z " fill="#404040" transform="translate(265,376)"/>
<path d="M0 0 C1.0828125 1.11375 1.0828125 1.11375 2.1875 2.25 C3.5796875 3.61125 3.5796875 3.61125 5 5 C5.680625 5.7425 6.36125 6.485 7.0625 7.25 C11.70512731 10.01582052 16.68549721 9.83047838 22 10 C18.73584148 12.71410076 16.45675535 13.64717371 12.09375 13.484375 C7.07955876 12.32437553 3.90941732 8.29078587 1.0625 4.25 C0 2 0 2 0 0 Z " fill="#D3D2D2" transform="translate(231,273)"/>
<path d="M0 0 C0.66 0.33 1.32 0.66 2 1 C-5.68839168 5.66720796 -13.25683163 5.63948833 -22 5 C-22.99 4.67 -23.98 4.34 -25 4 C-25 3.34 -25 2.68 -25 2 C-21.71303767 1.20046862 -20.28976808 0.90341064 -17 2 C-10.91385927 2.41083838 -5.74115037 2.20813476 0 0 Z " fill="#3B3B3B" transform="translate(330,376)"/>
<path d="M0 0 C4.31513539 0.47373801 6.81722133 3.26153249 9.8125 6.125 C10.34004883 6.61911377 10.86759766 7.11322754 11.41113281 7.62231445 C15.35580031 11.33419578 19.21317165 15.12710737 23 19 C22.67 19.66 22.34 20.32 22 21 C21.40574219 20.38253906 20.81148438 19.76507813 20.19921875 19.12890625 C14.7675008 13.57892384 9.2598715 8.60943624 3.15234375 3.8125 C1 2 1 2 0 0 Z " fill="#313131" transform="translate(373,373)"/>
<path d="M0 0 C-3.06001577 2.04001051 -5.14664961 2.66579197 -8.6875 3.5 C-10.27884766 3.88091797 -10.27884766 3.88091797 -11.90234375 4.26953125 C-13.43568359 4.63111328 -13.43568359 4.63111328 -15 5 C-16.58403992 5.3929962 -18.1675028 5.78833702 -19.75 6.1875 C-20.8225 6.455625 -21.895 6.72375 -23 7 C-23.33 6.01 -23.66 5.02 -24 4 C-21.50276548 3.32114013 -19.00303859 2.65682573 -16.5 2 C-15.80390625 1.80921875 -15.1078125 1.6184375 -14.390625 1.421875 C-9.4587081 0.14322988 -5.09419909 -0.18357474 0 0 Z " fill="#444444" transform="translate(255,352)"/>
<path d="M0 0 C7.51806849 -0.44032071 13.84224277 0.71387222 21 3 C21 3.33 21 3.66 21 4 C14.4 3.67 7.8 3.34 1 3 C0.67 2.01 0.34 1.02 0 0 Z " fill="#F4F3F3" transform="translate(360,258)"/>
<path d="M0 0 C3.52076232 -0.05855176 7.0413976 -0.0937806 10.5625 -0.125 C12.0484668 -0.15013672 12.0484668 -0.15013672 13.56445312 -0.17578125 C19.12728491 -0.21274359 23.74843075 0.12917449 29 2 C29 2.33 29 2.66 29 3 C22.39753314 3.1074664 15.99878797 2.71245093 9.4375 2 C8.52419922 1.90460938 7.61089844 1.80921875 6.66992188 1.7109375 C4.44614468 1.47808125 2.22290224 1.24104145 0 1 C0 0.67 0 0.34 0 0 Z " fill="#292929" transform="translate(342,348)"/>
<path d="M0 0 C0 0.99 0 1.98 0 3 C-2.75153071 2.38120598 -5.50108898 1.75523814 -8.25 1.125 C-9.02730469 0.95097656 -9.80460937 0.77695312 -10.60546875 0.59765625 C-11.73662109 0.33662109 -11.73662109 0.33662109 -12.890625 0.0703125 C-13.58188477 -0.08679199 -14.27314453 -0.24389648 -14.98535156 -0.40576172 C-17.14737125 -1.04346845 -19.01604085 -1.93799834 -21 -3 C-14.35263158 -5.20018532 -6.31418295 -2.38915031 0 0 Z " fill="#373737" transform="translate(388,354)"/>
<path d="M0 0 C0.99 0 1.98 0 3 0 C3.33 2.97 3.66 5.94 4 9 C2.68 9.33 1.36 9.66 0 10 C-0.66 10.66 -1.32 11.32 -2 12 C-2.33 9.36 -2.66 6.72 -3 4 C-2.34 3.67 -1.68 3.34 -1 3 C-0.67 2.01 -0.34 1.02 0 0 Z " fill="#302E2E" transform="translate(162,240)"/>
<path d="M0 0 C-2.24307028 1.20250158 -4.4928791 2.3869162 -6.75 3.5625 C-7.70132813 4.07586914 -7.70132813 4.07586914 -8.671875 4.59960938 C-13.45095438 7.06382218 -13.45095438 7.06382218 -16.453125 6.71484375 C-16.96359375 6.47894531 -17.4740625 6.24304688 -18 6 C-4.96969987 -1.4377748 -4.96969987 -1.4377748 0 0 Z " fill="#2D2D2D" transform="translate(233,358)"/>
<path d="M0 0 C-2.74861395 1.1492567 -5.49877984 2.29451341 -8.25 3.4375 C-9.02730469 3.76298828 -9.80460938 4.08847656 -10.60546875 4.42382812 C-11.35957031 4.73642578 -12.11367187 5.04902344 -12.890625 5.37109375 C-13.58188477 5.65911865 -14.27314453 5.94714355 -14.98535156 6.24389648 C-16.97191686 6.98946031 -18.93306394 7.52784696 -21 8 C-21 7.34 -21 6.68 -21 6 C-4.99223718 -1.4626937 -4.99223718 -1.4626937 0 0 Z " fill="#464646" transform="translate(258,356)"/>
<path d="M0 0 C5.94 0.99 5.94 0.99 12 2 C11.01 2.495 11.01 2.495 10 3 C10 3.99 10 4.98 10 6 C6.37 5.01 2.74 4.02 -1 3 C-0.67 2.01 -0.34 1.02 0 0 Z " fill="#E6E6E6" transform="translate(343,353)"/>
<path d="M0 0 C5.75 1.75 5.75 1.75 8 4 C5 6 5 6 2.4375 5.75 C0 5 0 5 -2 3 C-1.34 2.01 -0.68 1.02 0 0 Z " fill="#303030" transform="translate(300,373)"/>
<path d="M0 0 C0.33 0.99 0.66 1.98 1 3 C-1.45443416 6.68165124 -4.31834876 9.54556584 -8 12 C-8.99 11.67 -9.98 11.34 -11 11 C-7.37 7.37 -3.74 3.74 0 0 Z " fill="#2B2929" transform="translate(382,131)"/>
<path d="M0 0 C1.98 0.66 3.96 1.32 6 2 C5.01 2.33 4.02 2.66 3 3 C3 3.66 3 4.32 3 5 C4.32 5.33 5.64 5.66 7 6 C3.37 6 -0.26 6 -4 6 C-3.01 5.01 -2.02 4.02 -1 3 C-0.67 2.01 -0.34 1.02 0 0 Z " fill="#322F30" transform="translate(346,285)"/>
<path d="M0 0 C2.125 0.9375 2.125 0.9375 4 2 C3.67 3.32 3.34 4.64 3 6 C1.35 6 -0.3 6 -2 6 C-2 4.35 -2 2.7 -2 1 C-1.34 0.67 -0.68 0.34 0 0 Z " fill="#E1DFE0" transform="translate(343,268)"/>
<path d="M0 0 C1.32 1.32 2.64 2.64 4 4 C4.66 3.34 5.32 2.68 6 2 C6.33 3.32 6.66 4.64 7 6 C4 8 4 8 1.8125 7.625 C1.214375 7.41875 0.61625 7.2125 0 7 C0 4.69 0 2.38 0 0 Z " fill="#232222" transform="translate(152,185)"/>
<path d="M0 0 C0.33 0.66 0.66 1.32 1 2 C-1.97 2.66 -4.94 3.32 -8 4 C-8 2.68 -8 1.36 -8 0 C-4.97878489 -0.97110486 -2.99536737 -1.13617383 0 0 Z " fill="#ECECEC" transform="translate(250,355)"/>
<path d="M0 0 C0 2.97 0 5.94 0 9 C-0.99 9.495 -0.99 9.495 -2 10 C-3.76462683 6.91190305 -4 5.76687864 -4 2 C-1 0 -1 0 0 0 Z " fill="#2E2E2E" transform="translate(170,288)"/>
<path d="M0 0 C1.0828125 1.11375 1.0828125 1.11375 2.1875 2.25 C4.89699658 5.01552388 4.89699658 5.01552388 7.8125 7.125 C8.534375 7.74375 9.25625 8.3625 10 9 C10 9.99 10 10.98 10 12 C6.60812721 10.58426179 4.90302459 8.95769034 2.75 6 C2.22921875 5.29875 1.7084375 4.5975 1.171875 3.875 C0 2 0 2 0 0 Z " fill="#C9C7C7" transform="translate(231,273)"/>
<path d="M0 0 C0.33 0 0.66 0 1 0 C1 5.28 1 10.56 1 16 C0.01 16.33 -0.98 16.66 -2 17 C-2 15.35 -2 13.7 -2 12 C-1.34 12 -0.68 12 0 12 C0 8.04 0 4.08 0 0 Z " fill="#161616" transform="translate(168,273)"/>
<path d="M0 0 C1.65 0.33 3.3 0.66 5 1 C4.67 2.32 4.34 3.64 4 5 C2.35 4.67 0.7 4.34 -1 4 C-0.67 2.68 -0.34 1.36 0 0 Z " fill="#F2F0F1" transform="translate(238,269)"/>
<path d="M0 0 C-4.48074195 3.36055646 -7.60550707 3.27429625 -13 3 C-4.20833333 -1.55864198 -4.20833333 -1.55864198 0 0 Z " fill="#EEECED" transform="translate(362,289)"/>
<path d="M0 0 C0.79921875 0.02707031 1.5984375 0.05414063 2.421875 0.08203125 C3.02515625 0.11683594 3.6284375 0.15164063 4.25 0.1875 C1.08759418 2.29577055 -0.25657469 2.52567465 -3.9375 2.8125 C-5.28908203 2.92464844 -5.28908203 2.92464844 -6.66796875 3.0390625 C-7.69857422 3.11253906 -7.69857422 3.11253906 -8.75 3.1875 C-5.74754796 0.56379764 -3.97853212 -0.17552348 0 0 Z " fill="#212121" transform="translate(226.75,349.8125)"/>
<path d="M0 0 C0 3.20395416 -0.74335022 5.09399739 -2 8 C-2.66 8 -3.32 8 -4 8 C-4.33 6.68 -4.66 5.36 -5 4 C-3.35 2.68 -1.7 1.36 0 0 Z " fill="#F5F3F4" transform="translate(336,266)"/>
<path d="M0 0 C0.78375 0.04125 1.5675 0.0825 2.375 0.125 C2.045 1.445 1.715 2.765 1.375 4.125 C-0.605 4.125 -2.585 4.125 -4.625 4.125 C-4.625 0.73492581 -3.1763743 0.15125592 0 0 Z " fill="#201E1F" transform="translate(353.625,285.875)"/>
<path d="M0 0 C0.66 0.66 1.32 1.32 2 2 C1.34 3.65 0.68 5.3 0 7 C-1.32 6.67 -2.64 6.34 -4 6 C-2.84826645 3.53199953 -1.95216435 1.95216435 0 0 Z " fill="#1D1B1C" transform="translate(339,268)"/>
<path d="M0 0 C2.97 0 5.94 0 9 0 C9.33 0.99 9.66 1.98 10 3 C6.7 2.67 3.4 2.34 0 2 C0 1.34 0 0.68 0 0 Z " fill="#303030" transform="translate(216,260)"/>
<path d="M0 0 C1.98 0.495 1.98 0.495 4 1 C3.67 2.65 3.34 4.3 3 6 C1.68 4.68 0.36 3.36 -1 2 C-0.67 1.34 -0.34 0.68 0 0 Z " fill="#2A2A2A" transform="translate(279,342)"/>
<path d="M0 0 C2.31 0.33 4.62 0.66 7 1 C6.67 2.32 6.34 3.64 6 5 C4.35 4.67 2.7 4.34 1 4 C0.67 2.68 0.34 1.36 0 0 Z " fill="#2D2A2B" transform="translate(312,340)"/>
<path d="M0 0 C2.34058637 2.12780579 3.70700306 4.11562221 5 7 C4.01 7.495 4.01 7.495 3 8 C1.5 6.8125 1.5 6.8125 0 5 C-0.1875 2.3125 -0.1875 2.3125 0 0 Z " fill="#1E1B1C" transform="translate(226,268)"/>
<path d="M0 0 C-2.91765 1.9451 -4.62537285 2.45276317 -8 3 C-8.33 2.01 -8.66 1.02 -9 0 C-5.52176885 -1.15941038 -3.54104422 -0.70820884 0 0 Z " fill="#595959" transform="translate(240,356)"/>
<path d="M0 0 C0.33 0.66 0.66 1.32 1 2 C-0.65 4.31 -2.3 6.62 -4 9 C-4.99 8.34 -5.98 7.68 -7 7 C-6.21625 6.401875 -5.4325 5.80375 -4.625 5.1875 C-1.85425677 3.08914751 -1.85425677 3.08914751 0 0 Z " fill="#CAC5C7" transform="translate(364,274)"/>
<path d="M0 0 C2.125 0.9375 2.125 0.9375 4 2 C2 4 2 4 -0.625 4.125 C-1.40875 4.08375 -2.1925 4.0425 -3 4 C-2.67 3.01 -2.34 2.02 -2 1 C-1.34 0.67 -0.68 0.34 0 0 Z " fill="#2B292A" transform="translate(343,265)"/>
<path d="M0 0 C0.33 0.99 0.66 1.98 1 3 C0.34 3.66 -0.32 4.32 -1 5 C-1.33 4.01 -1.66 3.02 -2 2 C-1.34 1.34 -0.68 0.68 0 0 Z M-4 2 C-3.34 2.33 -2.68 2.66 -2 3 C-2 3.66 -2 4.32 -2 5 C-2.66 5 -3.32 5 -4 5 C-4.33 5.99 -4.66 6.98 -5 8 C-4.67 6.02 -4.34 4.04 -4 2 Z " fill="#353434" transform="translate(156,180)"/>
</svg>
